<?xml version="1.0" standalone="no"?>
<!DOCTYPE svg PUBLIC "-//W3C//DTD SVG 20010904//EN" "http://www.w3.org/TR/2001/REC-SVG-20010904/DTD/svg10.dtd">
<!-- Created using Krita: https://krita.org -->
<svg xmlns="http://www.w3.org/2000/svg" 
    xmlns:xlink="http://www.w3.org/1999/xlink"
    xmlns:krita="http://krita.org/namespaces/svg/krita"
    xmlns:sodipodi="http://sodipodi.sourceforge.net/DTD/sodipodi-0.dtd"
    width="737.28pt"
    height="737.28pt"
    viewBox="0 0 737.28 737.28">
<defs>
  <linearGradient id="gradient0" gradientUnits="objectBoundingBox" x1="-0.0433605161266967" y1="-0.287837141765514" x2="1.93369644726154" y2="-0.326106831705406" spreadMethod="pad">
   <stop stop-color="#467016" offset="0" stop-opacity="1"/>
   <stop stop-color="#647a21" offset="0.314009661835749" stop-opacity="1"/>
   <stop stop-color="#bced08" offset="0.690821256038647" stop-opacity="1"/>
   <stop stop-color="#cfed08" offset="0.975845410628019" stop-opacity="1"/>
  </linearGradient>
  <radialGradient id="gradient1" gradientUnits="objectBoundingBox" cx="0.0571428529386075" cy="0.671428522028645" fx="-0.585714242620735" fy="0.499999963212826" r="1.4142135623731" spreadMethod="pad">
   <stop stop-color="#467016" offset="0" stop-opacity="1"/>
   <stop stop-color="#749629" offset="0.386473429951691" stop-opacity="1"/>
   <stop stop-color="#a6ed34" offset="0.666666666666667" stop-opacity="1"/>
  </radialGradient>
  <radialGradient id="gradient2" gradientUnits="objectBoundingBox" cx="0.488372057091594" cy="0.541176430771527" fx="0.237920740258529" fy="1.16191281469493" r="0.972353129766415" spreadMethod="pad">
   <stop stop-color="#467016" offset="0" stop-opacity="1"/>
   <stop stop-color="#749629" offset="0.550724637681159" stop-opacity="1"/>
   <stop stop-color="#90d325" offset="0.975845410628019" stop-opacity="1"/>
  </radialGradient>
  <linearGradient id="gradient3" gradientUnits="objectBoundingBox" x1="-0.808936992518377" y1="0.598299669289097" x2="1.13387337552241" y2="0.545292251340286" spreadMethod="pad">
   <stop stop-color="#467016" offset="0" stop-opacity="1"/>
   <stop stop-color="#647a21" offset="0.314009661835749" stop-opacity="1"/>
   <stop stop-color="#bced08" offset="0.690821256038647" stop-opacity="1"/>
   <stop stop-color="#cfed08" offset="0.975845410628019" stop-opacity="1"/>
  </linearGradient>
  <linearGradient id="gradient4" gradientUnits="objectBoundingBox" x1="1.03020667726559" y1="-0.00390243902439069" x2="-0.608043989296427" y2="0.0390243902439062" spreadMethod="pad">
   <stop stop-color="#ffffff" offset="0" stop-opacity="1"/>
   <stop stop-color="#8f8289" offset="1" stop-opacity="1"/>
  </linearGradient>
  <linearGradient id="gradient5" gradientUnits="objectBoundingBox" x1="-0.684491937810786" y1="-0.00254574226256865" x2="1.27018503188674" y2="-0.0254574226256863" spreadMethod="pad">
   <stop stop-color="#467016" offset="0" stop-opacity="1"/>
   <stop stop-color="#647a21" offset="0.314009661835749" stop-opacity="1"/>
   <stop stop-color="#bced08" offset="0.690821256038647" stop-opacity="1"/>
   <stop stop-color="#cfed08" offset="0.975845410628019" stop-opacity="1"/>
  </linearGradient>
 </defs>
<path id="shape0" transform="translate(143.509138130045, 305.729986574626)" fill="url(#gradient0)" fill-rule="evenodd" stroke="none" stroke-width="0.72" stroke-linecap="square" stroke-linejoin="bevel" d="M92.2009 0C57.3709 44.28 55.1969 42.9636 31.5409 83.88C18.4387 106.542 10.1958 132.762 1.57086 171.99C-1.73909 187.044 -0.077092 224.009 9.04086 241.2C17.5298 257.205 35.0926 282.604 92.2009 284.85C126.691 286.207 167.358 274.573 201.956 257.31C211.173 252.711 224.905 247.01 247.946 233.82C253.597 230.585 255.131 229.14 253.571 226.62C251.231 222.84 248.801 225.9 243.401 228.33C238.001 230.76 210.551 246.15 195.431 251.37C180.567 256.502 159.791 266.94 116.861 268.38C76.0245 269.75 50.9223 255.186 34.9609 234.09C12.7662 204.756 14.7468 173.119 19.0309 146.07C21.725 129.06 33.2061 96.6615 46.1209 71.28C61.6909 40.68 61.6909 40.77 92.2009 0Z" sodipodi:nodetypes="csssssszzsssssc"/><circle id="shape1" transform="translate(407.52, 498.239999947027)" r="12.6" cx="12.6" cy="12.6" fill="url(#gradient1)" fill-rule="evenodd" stroke="none" stroke-width="2.16" stroke-linecap="square" stroke-linejoin="bevel"/><ellipse id="shape2" transform="translate(270, 226.8)" rx="30.96" ry="30.6" cx="30.96" cy="30.6" fill="url(#gradient2)" fill-rule="evenodd" stroke="none" stroke-width="2.16" stroke-linecap="square" stroke-linejoin="bevel"/><path id="shape3" transform="translate(341.639985045689, 153.978964257288)" fill="url(#gradient3)" fill-rule="evenodd" stroke="none" stroke-width="2.16" stroke-linecap="square" stroke-linejoin="bevel" d="M0 58.061C13.86 48.881 25.4954 40.7819 40.59 32.771C113.85 -6.10897 152.311 -1.13784 176.22 2.26103C203.085 6.0801 229.757 21.1725 245.52 55.001C251.946 68.7919 253.432 82.6297 252.54 99.641C252.054 108.906 250.974 115.806 249.3 120.341L241.2 120.341C242.88 106.301 243.6 96.281 243.36 90.281C243 81.281 236.34 54.191 222.75 40.871C208.583 26.9852 188.939 17.3935 174.33 14.141C149.67 8.65103 106.657 6.889 67.95 25.031C32.4142 41.6867 28.26 46.181 12.24 54.821C-0.18 62.561 5.94 62.201 0 58.061Z" sodipodi:nodetypes="cssssccsssscc"/><path id="shape4" transform="translate(196.559997254095, 324.89999546121)" fill="url(#gradient4)" fill-rule="evenodd" stroke="none" stroke-width="2.16" stroke-linecap="square" stroke-linejoin="bevel" d="M48.24 0.18L113.22 0L61.38 184.5L0 184.14L48.24 0.18" sodipodi:nodetypes="ccccc"/><path id="shape5" transform="translate(309.419995677464, 226.529996835421)" fill="url(#gradient5)" fill-rule="evenodd" stroke="none" stroke-width="2.16" stroke-linecap="square" stroke-linejoin="bevel" d="M0 143.505L175.23 0L252.45 0L73.575 143.91L178.2 282.15C158.208 282.607 142.638 282.832 131.49 282.825C131.957 278.14 129.493 270.742 125.55 266.895C120.687 262.151 112.324 261.549 106.92 262.305C104.365 262.663 99.0755 265.69 94.635 269.595C89.3082 263.431 57.7632 221.401 0 143.505" sodipodi:nodetypes="ccccccsscc"/>
</svg>
