<svg width="75" height="28" viewBox="0 0 75 28" fill="none" xmlns="http://www.w3.org/2000/svg">
<path d="M0.539941 24.4805V9.60047H4.31994V24.4805H0.539941ZM2.42994 7.86047C1.74994 7.86047 1.16994 7.64047 0.689941 7.20047C0.229941 6.76047 -5.85616e-05 6.18047 -5.85616e-05 5.46047C-5.85616e-05 4.74047 0.229941 4.16047 0.689941 3.72047C1.16994 3.28047 1.74994 3.06047 2.42994 3.06047C3.12994 3.06047 3.70994 3.28047 4.16994 3.72047C4.62994 4.16047 4.85994 4.74047 4.85994 5.46047C4.85994 6.18047 4.62994 6.76047 4.16994 7.20047C3.70994 7.64047 3.12994 7.86047 2.42994 7.86047ZM7.63869 24.4805V3.48047H11.5987V11.8205H12.1387L18.9487 3.48047H24.0187L15.2587 13.8305L24.3187 24.4805H19.0987L12.1387 15.9605H11.5987V24.4805H7.63869ZM30.408 24.9005C29.348 24.9005 28.398 24.7205 27.558 24.3605C26.718 23.9805 26.048 23.4405 25.548 22.7405C25.068 22.0205 24.828 21.1505 24.828 20.1305C24.828 19.1105 25.068 18.2605 25.548 17.5805C26.048 16.8805 26.728 16.3605 27.588 16.0205C28.468 15.6605 29.468 15.4805 30.588 15.4805H34.668V14.6405C34.668 13.9405 34.448 13.3705 34.008 12.9305C33.568 12.4705 32.868 12.2405 31.908 12.2405C30.968 12.2405 30.268 12.4605 29.808 12.9005C29.348 13.3205 29.048 13.8705 28.908 14.5505L25.428 13.3805C25.668 12.6205 26.048 11.9305 26.568 11.3105C27.108 10.6705 27.818 10.1605 28.698 9.78047C29.598 9.38047 30.688 9.18047 31.968 9.18047C33.928 9.18047 35.478 9.67047 36.618 10.6505C37.758 11.6305 38.328 13.0505 38.328 14.9105V20.4605C38.328 21.0605 38.608 21.3605 39.168 21.3605H40.368V24.4805H37.848C37.108 24.4805 36.498 24.3005 36.018 23.9405C35.538 23.5805 35.298 23.1005 35.298 22.5005V22.4705H34.728C34.648 22.7105 34.468 23.0305 34.188 23.4305C33.908 23.8105 33.468 24.1505 32.868 24.4505C32.268 24.7505 31.448 24.9005 30.408 24.9005ZM31.068 21.8405C32.128 21.8405 32.988 21.5505 33.648 20.9705C34.328 20.3705 34.668 19.5805 34.668 18.6005V18.3005H30.858C30.158 18.3005 29.608 18.4505 29.208 18.7505C28.808 19.0505 28.608 19.4705 28.608 20.0105C28.608 20.5505 28.818 20.9905 29.238 21.3305C29.658 21.6705 30.268 21.8405 31.068 21.8405ZM60.5751 24.4805V3.48047H64.3551V11.4305H64.8951C65.0551 11.1105 65.3051 10.7905 65.6451 10.4705C65.9851 10.1505 66.4351 9.89047 66.9951 9.69047C67.5751 9.47047 68.3051 9.36047 69.1851 9.36047C70.3451 9.36047 71.3551 9.63047 72.2151 10.1705C73.0951 10.6905 73.7751 11.4205 74.2551 12.3605C74.7351 13.2805 74.9751 14.3605 74.9751 15.6005V24.4805H71.1951V15.9005C71.1951 14.7805 70.9151 13.9405 70.3551 13.3805C69.8151 12.8205 69.0351 12.5405 68.0151 12.5405C66.8551 12.5405 65.9551 12.9305 65.3151 13.7105C64.6751 14.4705 64.3551 15.5405 64.3551 16.9205V24.4805H60.5751Z" fill="white"/>
<path d="M49.5517 24.9005C47.9317 24.9005 46.5017 24.6105 45.2617 24.0305C44.0217 23.4505 43.0517 22.6205 42.3517 21.5405C41.6517 20.4605 41.3017 19.1605 41.3017 17.6405V16.8005H45.2017V17.6405C45.2017 18.9005 45.5917 19.8505 46.3717 20.4905C47.1517 21.1105 48.2117 21.4205 49.5517 21.4205C50.9117 21.4205 51.9217 21.1505 52.5817 20.6105C53.2617 20.0705 53.6017 19.3805 53.6017 18.5405C53.6017 17.9605 53.4417 17.4905 53.1217 17.1305C52.8017 16.7705 52.3317 16.4805 51.7117 16.2605C51.0917 16.0205 50.3317 15.8005 49.4317 15.6005L48.7417 15.4505C47.3017 15.1305 46.0617 14.7305 45.0217 14.2505C44.0017 13.7505 43.2117 13.1005 42.6517 12.3005C42.1117 11.5005 41.8417 10.4605 41.8417 9.18047C41.8417 7.90047 42.1417 6.81047 42.7417 5.91047C43.3617 4.99047 44.2217 4.29047 45.3217 3.81047C46.4417 3.31047 47.7517 3.06047 49.2517 3.06047C50.7517 3.06047 52.0817 3.32047 53.2417 3.84047C54.4217 4.34047 55.3417 5.10047 56.0017 6.12047C56.6817 7.12047 57.0217 8.38047 57.0217 9.90047V10.8005H53.1217V9.90047C53.1217 9.10047 52.9617 8.46047 52.6417 7.98047C52.3417 7.48047 51.9017 7.12047 51.3217 6.90047C50.7417 6.66047 50.0517 6.54047 49.2517 6.54047C48.0517 6.54047 47.1617 6.77047 46.5817 7.23047C46.0217 7.67047 45.7417 8.28047 45.7417 9.06047C45.7417 9.58047 45.8717 10.0205 46.1317 10.3805C46.4117 10.7405 46.8217 11.0405 47.3617 11.2805C47.9017 11.5205 48.5917 11.7305 49.4317 11.9105L50.1217 12.0605C51.6217 12.3805 52.9217 12.7905 54.0217 13.2905C55.1217 13.7905 55.9717 14.4505 56.5717 15.2705C57.1917 16.0905 57.5017 17.1405 57.5017 18.4205C57.5017 19.7005 57.1717 20.8305 56.5117 21.8105C55.8717 22.7705 54.9517 23.5305 53.7517 24.0905C52.5717 24.6305 51.1717 24.9005 49.5517 24.9005ZM47.7217 27.9605V0.00046742H51.3217V27.9605H47.7217Z" fill="#BCED09"/>
</svg>
